<svg version="1.0" viewBox="0 0 12000 12000"><path d="M0 6000V0h12000v12000H0V6000z"/><path d="M0 6000V0h12000v12000H0V6000zm4179 4599c27-6 71-26 98-45l48-34 3 35c3 34 5 35 43 35h39l-2-277-3-278h-35c-33 0-35 2-40 38l-5 39-25-20c-95-74-211-88-312-39-62 30-106 74-140 140-34 65-32 184 4 253 41 78 112 133 195 153 53 13 75 13 132 0zm1607-20c62-30 127-106 149-174 43-138-22-288-152-351-76-37-177-38-249-1-105 54-167 152-167 267 0 131 77 234 206 276 56 18 158 10 213-17zm1191 16c27-8 68-28 91-45 23-16 44-30 47-30s5 16 5 35c0 33 2 35 35 35h35v-880h-70v411l-32-24c-68-51-120-70-188-71-81 0-127 15-189 64-88 70-128 195-97 302 28 99 93 166 191 200 62 22 107 22 172 3zm1208-16c22-11 52-32 68-47l27-26v84h80l-2-277-3-278-37-3-38-3v92l-22-21c-83-78-217-98-320-47-62 30-105 74-140 140-33 61-32 184 1 247 59 114 164 175 286 165 32-3 77-14 100-26zm-5105-319c0-190 4-330 9-330s62 124 126 275l117 276 46-3 45-3 72-170c40-93 91-216 115-272 24-57 47-103 52-103 4 0 8 149 8 330v330h80v-881l-41 3-41 3-88 205c-48 113-111 261-140 330s-55 129-60 133c-4 4-18-18-32-50-29-66-203-478-238-565-23-56-25-58-62-58h-38v880h70v-330zm1472 168c5-175 12-202 67-261 32-36 92-67 126-67 23 0 25-4 25-40v-41l-37 7c-46 8-120 44-150 74-13 11-24 18-24 15-1-3-3-9-4-15-1-5-3-23-4-40-1-27-4-30-36-30h-35v560h67l5-162zm370 27l3-135 125 135 125 135h98l-49-53c-27-28-93-99-147-157l-98-105 48-45c26-25 86-80 133-122l85-77-53-1c-53 0-54 1-142 81-48 44-97 87-109 95l-21 15v-511h-80v880h79l3-135zm1608-305v-440h-70v880h70v-440zm1170 405v-35h-342l19-24c10-13 87-105 171-205 142-168 152-183 152-221v-40l-217 2-218 3-3 37-3 38 172 2 173 3-90 105c-246 288-254 298-254 335v35h440v-35zm800-127c0-90 5-180 11-201 15-57 76-113 137-126 63-13 110-1 159 42 57 50 63 75 63 272v175h71l-3-198-3-199-30-49c-36-57-113-108-179-118-55-9-131 8-178 39-21 14-40 25-43 25s-5-13-5-30c0-28-3-30-35-30h-35v560h70v-162zM6350 9215c408-46 764-153 1126-339 820-420 1430-1184 1658-2076 75-296 100-524 93-870-5-265-19-396-62-600-135-641-455-1213-935-1673-449-431-999-716-1610-836-228-45-343-55-630-54-246 0-294 3-450 26-655 99-1202 354-1700 793-151 133-298 294-437 479-326 433-525 916-610 1475-23 156-26 204-26 450-1 287 9 402 54 630 121 615 406 1163 842 1617 545 567 1253 909 2042 986 114 11 520 6 645-8z"/><path d="M4010 10508c-156-83-153-309 4-390 106-54 243-4 301 111 27 53 18 157-18 204-53 70-92 91-171 95-60 3-78 0-116-20zm1589 19c-65-18-104-50-133-109-58-115-16-241 98-300 59-30 159-23 215 17 139 95 125 303-24 378-45 22-105 28-156 14zm1234-1c-101-32-153-104-153-211 0-54 5-77 24-110 47-80 145-124 233-105 74 17 117 52 155 124 31 60 23 161-17 218-52 73-159 110-242 84zm1137-12c-79-34-124-107-124-199 0-127 88-217 214-217 203 0 297 247 145 380-20 18-48 38-62 43-37 14-134 10-173-7zM5745 9030c-1016-89-1907-665-2410-1560-133-236-256-560-310-818-53-252-59-324-59-657 0-285 2-335 22-454 76-456 225-844 460-1201 125-191 233-323 401-491 470-469 1017-748 1692-861 119-20 169-22 454-22 333 0 405 6 657 59 539 114 1082 411 1486 814 483 482 772 1057 874 1744 31 209 31 610 0 823-83 564-275 1021-618 1464-114 148-376 410-524 524-440 341-904 537-1455 616-161 23-513 34-670 20zm-937-2577l2-602-54-168c-189-588-281-863-288-863-10 0-11 2224-1 2234 4 3 81 5 172 4l166-3 3-602zm836 599c3-5-26-107-64-228-97-310-225-716-320-1014-44-140-101-318-125-395-207-658-309-972-317-983-8-9-47-12-152-10l-141 3 1 30c0 17 26 109 57 205s212 666 402 1265c190 600 353 1100 361 1113 14 21 20 22 154 22 76 0 141-4 144-8zm824-1301c1-955-1-1307-9-1317-9-11-50-14-178-14-91 0-171 4-178 8-12 8-37 83-254 767-77 242-175 550-218 685-44 135-81 256-84 270-9 36 126 446 143 435 5-3 26-60 48-128 38-115 285-873 338-1039 14-43 30-78 35-78s9 342 9 853c0 470 3 857 7 861 4 3 81 5 172 4l166-3 3-1304zm1240 1170c2-90-1-138-9-147-9-11-41-14-130-14h-119V4720h114c63 0 121-3 130-6 14-5 16-28 16-144s-2-139-16-144c-9-3-199-6-423-6-303 0-410 3-419 12-8 8-12 53-12 138s4 130 12 138 52 12 130 12h118v2040h-111c-61 0-119 5-130 10-17 10-19 22-19 144 0 73 3 136 7 139 3 4 198 6 432 5l426-3 3-134z"/><path d="M0 6000V0h12000v12000H0V6000zm4229 4583c25-14 57-32 71-39 24-13 25-13 28 16 3 28 6 30 43 30h39v-570h-80v40c0 48-10 50-59 11-35-28-114-54-158-52-61 3-82 9-133 38-71 40-123 97-139 153-7 25-18 55-23 67-10 20-9 33 7 108 12 52 35 94 73 133 69 69 116 89 210 90 62 0 83-5 121-25zm1540 7c20-10 41-19 47-21 35-12 120-138 132-194 9-49-3-161-19-171-5-3-9-14-9-24 0-17-52-76-100-115-48-38-243-54-278-22-10 9-24 17-31 17-14 0-109 101-126 134-26 50-23 170 5 246 17 45 32 64 82 104 34 27 70 50 80 51s20 4 24 7c13 14 158 4 193-12zm1207 9c3-5 10-7 15-4 5 4 21-3 35-14 15-12 33-21 40-21s18-9 24-20c16-31 30-24 30 15 0 33 2 35 35 35h35v-880h-70v188c0 104-3 192-6 195-4 4-19-1-33-11-58-39-183-76-211-63-8 4-41 14-74 21-32 8-60 20-63 27s-10 13-17 13c-14 0-45 34-64 70-8 14-21 39-30 55-11 20-17 57-18 109-1 71 2 85 27 128 16 27 29 52 29 55 0 16 69 70 125 97 33 16 182 20 191 5zm1182-5c15-8 33-14 40-14 6 0 20-8 30-18s26-21 35-25c14-5 17 0 17 23 0 28 2 30 40 30h40v-567l-40 1-40 1v96l-26-24c-26-25-88-55-156-76-28-9-43-9-58-1-12 6-28 9-36 6-19-7-126 57-159 96-25 30-53 82-71 133-9 28-11 116-2 122 5 2 8 13 8 23 0 47 101 161 158 180 24 7 45 17 47 21 8 13 146 7 173-7zm-454-36l-2-43-160-5c-159-5-159-5-151-27 4-12 19-29 33-39 15-9 26-21 26-27 0-10 9-21 70-84 16-17 30-36 30-42 0-5 16-23 35-38s35-33 35-39 19-31 42-55c34-37 41-51 42-87l2-42-221 2-220 3-3 38-3 37h164c162 0 165 0 160 21-3 11-16 27-29 36-13 8-24 21-24 28s-13 25-30 38c-16 14-30 30-30 35 0 6-13 22-30 35-16 14-30 30-30 35s-11 17-25 26-25 22-25 29-13 23-30 35c-16 13-30 29-30 37s-9 19-20 25c-15 8-20 21-20 55v45l218 3c119 1 220 3 223 5 3 1 4-17 3-40zm772 32h24v-164c0-98 4-167 10-171 5-3 9-16 8-29-4-45 64-113 120-120 16-2 34-6 41-10s18-2 26 4 19 9 24 5c14-8 61 18 86 47 46 54 48 64 46 250-1 98 0 181 3 186 3 4 21 6 40 4l35-4 3-187 3-186-38-67c-21-38-44-68-51-68s-21-9-30-19c-10-11-37-23-59-26-23-4-49-11-58-16-10-5-31-4-50 3-104 34-126 42-143 57s-18 14-15-19c4-34 3-35-34-35h-37l-3 288c-2 236 0 286 11 282 8-3 25-5 38-5zm-5396-330c0-184 4-330 9-330 9 0 81 160 81 180 0 6 22 57 49 113s52 113 56 127c3 14 19 49 33 77 24 47 31 53 59 53 17 0 38 3 47 6 11 4 16 0 16-12 0-11 9-32 20-49 11-16 20-37 20-46 0-17 60-159 109-256 17-34 30-66 29-70-4-13 44-123 53-123 5 0 9 146 9 330v330h80v-880h-29c-16 0-36-3-45-6-9-4-16-1-16 6 0 11-35 93-61 142-5 10-9 24-9 31 0 16-63 162-109 255-18 34-29 66-27 71 3 5-4 20-15 35-11 14-18 29-16 33 3 5-7 32-22 60-28 52-28 52-40 27-6-14-11-30-11-36 0-7-8-30-19-52-10-23-26-59-35-81-25-59-46-104-73-156-13-26-23-55-23-66 0-10-6-25-12-31-7-7-13-19-13-26s-20-57-45-110l-45-96h-75v880h70v-330zm1474 183c2-82 6-158 8-169 4-27 77-134 91-134 6 0 19-8 29-17 11-10 34-17 51-18 31 0 32-1 35-48 3-46 2-48-18-37-11 6-25 8-30 5s-17-2-27 3c-10 6-31 16-48 23-16 8-42 26-56 42-31 33-38 27-35-29l2-41-38 1-38 1v565h69l5-147zm366 11c0-120 2-135 15-124 8 7 15 19 15 26 0 8 7 14 15 14s15 5 15 10c0 6 29 38 65 71 36 34 65 65 65 70s15 23 33 39c26 24 41 29 82 30h49l-37-38c-20-21-37-42-37-46 0-5-37-46-82-91-46-45-94-95-108-111l-25-28 39-43c22-24 45-43 51-43s26-18 44-40c17-22 38-40 45-40 10 0 86-74 86-83 0-5-98 0-116 6-12 4-35 25-53 47s-36 40-42 40c-5 0-29 20-52 45-24 25-49 45-55 45-9 0-12-66-12-250v-250h-80v880h80v-136zm1610-304v-440h-70v880h70v-440zm-260-925c30-3 118-14 195-25 77-12 152-22 167-23 14-1 30-5 34-9 4-5 22-8 40-8s36-5 39-10c4-6 15-8 25-5s21 1 25-5c3-6 11-8 16-5s24-1 43-10c18-9 44-17 57-19 13-1 41-10 61-19 21-9 48-17 61-17s28-5 34-11c7-7 20-12 30-13s32-8 48-16c93-42 134-59 170-71 22-7 47-19 56-26 8-7 21-13 27-13s28-11 48-25 42-25 49-25c13 0 53-20 100-51 17-10 44-25 60-33 17-8 47-28 69-45 21-17 44-31 50-31s19-9 29-20c9-11 23-20 31-20s16-7 20-15c3-8 12-15 20-15s19-6 23-13c11-18 89-77 101-77 5 0 17-11 26-25s23-25 30-25c8 0 21-11 30-25s22-25 29-25c6 0 25-16 40-35s34-35 42-35 15-7 15-15 5-15 11-15c14 0 129-115 129-129 0-6 7-11 15-11s15-7 15-15 16-27 35-42 35-34 35-40c0-7 11-20 25-29s25-22 25-30c0-7 11-21 25-30s25-21 25-26c0-12 59-90 77-101 7-4 13-15 13-23s7-17 15-20c8-4 15-12 15-20s9-22 20-31c11-10 20-23 20-29s14-29 31-50c17-22 37-52 45-69 8-16 23-43 34-60 10-16 26-46 35-65 37-79 45-96 54-110 5-8 12-22 15-30s10-22 15-30 26-58 46-110 43-105 51-118c8-12 13-26 10-31-3-4 1-17 9-27s15-29 15-42c0-12 8-39 17-60 9-20 18-48 19-61 2-13 10-39 19-57 9-19 13-38 10-43s-1-13 5-16c6-4 8-15 5-25s-1-21 5-25c5-3 10-21 10-39s3-36 8-40c4-4 8-20 9-34 1-15 11-90 23-167 28-195 30-223 31-464 0-203-2-240-18-371-3-30-7-71-9-90-1-19-3-37-4-40s-4-16-6-30c-1-14-9-54-18-90-8-35-12-68-9-73 2-4 0-14-7-22-6-7-12-29-12-47s-4-37-8-43c-8-10-61-187-64-215-2-8-5-22-8-30-4-8-12-33-19-55s-20-53-30-70c-11-16-19-40-19-51 0-12-7-27-15-34s-12-17-9-22-5-26-19-46-31-55-38-77-19-47-26-56c-7-8-13-21-13-27 0-7-18-39-40-71s-40-65-40-73c0-9-7-21-15-28s-15-19-15-27c0-7-7-16-15-19-8-4-15-13-15-21 0-9-13-31-30-50-16-18-30-39-30-46s-13-24-29-39c-15-16-34-40-42-55-8-16-19-32-25-38-21-18-104-124-104-133 0-5-13-18-30-30-16-13-30-27-30-32 0-10-258-270-268-270-4 0-33-25-65-55s-60-55-62-55c-3 0-23-17-44-38-22-21-60-49-85-62s-63-37-84-54c-20-17-54-39-74-50-20-10-39-25-42-32-3-8-15-14-26-14s-20-5-20-11c0-5-24-21-52-35-29-13-60-28-68-33s-35-18-60-30-58-30-75-39c-16-10-48-24-70-31-39-13-153-63-187-82-10-5-26-9-36-9-9 0-28-7-40-16-13-9-26-14-28-11-6 6-81-17-132-40-18-8-45-16-60-18s-27-5-27-6-9-3-20-5-54-10-95-19c-406-83-752-99-1094-51-59 9-112 13-118 10-5-3-15 0-23 6s-19 9-24 5c-6-3-19-1-30 5-11 5-37 11-58 13-21 1-43 5-48 9-14 9-87 23-103 19-8-1-19 2-25 7-12 10-87 33-117 36-8 1-32 10-54 19-21 9-48 17-60 17-11 0-29 7-39 15-11 7-25 11-32 9-7-3-16-1-19 5-4 6-26 15-49 22-23 6-86 33-140 60s-104 49-111 49c-8 0-19 7-26 15s-20 15-30 15c-9 0-25 9-35 20s-26 20-36 20-21 5-24 10c-10 17-83 60-100 60-9 0-18 7-21 15s-16 17-27 21c-12 4-35 17-50 30s-44 31-63 40c-20 10-38 23-41 31-3 7-9 13-14 13s-24 13-42 29c-17 17-66 57-107 90-167 134-307 274-441 441-33 41-73 90-90 107-16 18-29 37-29 42s-6 11-13 14c-8 3-21 21-31 41-9 19-27 48-40 63s-26 38-30 50c-4 11-13 24-21 27s-15 12-15 21c0 17-43 90-60 100-5 3-10 14-10 24s-9 26-20 36-20 26-20 35c0 10-7 23-15 30s-15 18-15 26c0 7-23 58-51 114s-48 104-45 107-5 24-17 47c-12 22-22 49-23 59s-6 23-13 30c-6 6-11 21-11 33s-8 39-17 60c-9 22-18 46-19 54-3 30-26 105-36 117-5 6-8 17-7 25 4 16-10 89-19 103-4 5-8 27-9 48-2 21-8 47-13 58-6 11-8 24-5 30 4 5 1 16-5 24s-9 18-6 23c3 6-1 59-10 118-32 223-35 463-10 719 8 76 37 259 61 375 9 41 17 84 19 95s4 20 5 20 4 12 6 27 10 42 18 60c23 51 46 126 40 132-3 2 2 15 11 28 9 12 16 31 16 40 0 10 4 26 9 36 19 34 69 148 82 187 7 22 21 54 31 70 9 17 27 50 39 75 72 149 85 173 97 177 6 3 12 14 12 24 0 11 6 22 14 25 7 3 22 22 32 42 11 20 33 54 50 74 17 21 41 59 54 84s41 63 62 85c21 21 38 41 38 44 0 2 25 30 55 62s55 61 55 65c0 10 260 268 270 268 5 0 19 14 32 30 12 17 27 30 33 30s28 18 50 40c22 21 45 39 52 40 6 0 18 8 25 18 7 9 24 23 38 30s45 31 69 52c25 22 50 40 56 40 7 0 20 9 30 20s26 20 37 20c10 0 18 4 18 9 0 11 22 24 112 66 31 15 65 36 74 46 9 11 25 19 34 19 10 0 23 7 30 15s18 15 25 15c16 0 82 30 117 54 15 10 31 15 36 12 6-3 15 1 22 9s21 15 32 15c10 0 40 11 66 25s56 25 67 25 29 6 40 14c11 7 27 13 35 13 17 0 200 52 215 61 6 4 25 8 43 9 19 1 40 7 47 13 8 7 18 9 22 7 5-3 38 1 73 9 36 9 76 17 90 18 14 2 27 5 30 6s21 3 40 5c82 6 187 18 218 24 36 7 424 4 512-4z"/><path d="M4030 10519c-14-5-28-17-33-25-4-8-15-14-23-14-20 0-75-90-69-111 3-10 1-20-5-24-13-8-13-52 1-60 6-4 8-14 5-22-12-31 45-113 99-141 59-31 168-30 203 1 10 10 23 17 29 17 17 0 73 69 73 90 0 10 5 22 10 25 12 8 13 112 1 119-5 3-11 17-15 30-8 31-58 84-99 105-37 19-141 25-177 10zm1566 7c-27-8-53-21-58-30s-16-16-23-16c-8 0-15-6-15-13s-9-20-20-30c-11-9-20-26-20-36 0-11-5-23-11-27-14-8-6-121 10-137 6-6 11-17 11-25 0-13 55-72 67-72 3 0 15-8 28-19 19-14 39-18 99-16 101 2 144 31 188 124 33 71 34 121 2 184-30 59-44 69-148 111-45 19-46 19-110 2zm1237 0c-97-31-148-100-152-203-2-50 2-68 22-100 37-59 80-103 99-103 9 0 20-5 23-10 4-6 11-7 17-4 5 4 21 1 34-6 18-10 27-10 37-1 8 6 21 9 30 5 8-3 18-1 22 5 3 6 13 11 22 11 15 0 83 62 83 75 0 3 9 19 21 34 18 24 20 39 17 94-3 45-11 74-26 95-12 16-22 35-22 41s-11 16-25 21-25 14-25 19c0 11-48 27-100 35-19 3-54-1-77-8zm1152-7c-45-21-81-47-90-65-6-10-18-30-27-44-34-52-32-149 6-199 6-7 15-23 21-34 6-12 20-26 32-32 11-6 28-17 37-25 36-29 161-27 194 3 10 10 23 17 29 17 11 0 53 43 53 55 0 5 7 16 16 26 20 22 28 121 13 166-13 40-105 134-124 127-7-3-16-1-20 5-8 13-112 13-140 0zM5821 9029c-14-5-37-7-53-4-33 8-218-14-234-26-6-5-18-7-26-4s-35 1-59-5-57-13-74-16c-16-2-37-7-45-11-8-3-30-7-48-9s-47-10-64-18c-17-9-34-14-38-11-9 5-131-34-144-46-6-5-19-9-31-9-11 0-38-9-60-20s-46-20-54-20c-14 0-169-70-201-90-8-6-21-12-27-15-33-13-40-16-68-34-16-11-38-20-47-20-10-1-25-10-36-21-10-10-33-26-52-35-64-29-125-66-133-80-4-8-12-15-18-15-16 0-117-71-123-86-3-8-12-14-20-14-7 0-16-7-20-15-3-8-11-15-18-15-18 0-148-114-281-247-135-135-147-148-147-158 0-5-21-29-45-53-25-24-45-49-45-55 0-7-13-24-28-39-31-29-132-171-132-186 0-5-9-17-20-27s-20-26-20-36-6-22-13-26c-15-10-47-58-47-73 0-5-12-27-28-49-15-21-36-58-46-82s-37-81-58-126c-22-45-41-92-43-105s-12-41-24-63c-12-21-21-49-21-62 0-12-4-24-9-27-11-7-49-130-56-181-2-20-9-43-16-51-6-7-8-18-4-24s2-16-3-23c-6-7-13-28-17-47-11-58-16-94-19-120-1-14-6-36-9-50-26-98-35-341-27-775 0-33 16-136 44-302 9-47 19-89 24-98 4-5 7-23 9-40 1-16 7-43 14-60 7-16 14-39 15-50s8-33 15-50c7-16 14-34 14-40 2-12 13-40 31-82 8-17 17-46 21-65 3-18 16-52 29-76 13-23 24-51 24-61s9-30 20-44 20-32 20-40 7-20 15-27 15-21 15-31 4-20 9-23c5-4 20-27 34-54 13-26 41-80 62-120s48-83 61-95 24-27 24-33 13-26 30-44 30-38 30-43c0-14 76-114 106-140 13-11 24-26 24-33s16-25 35-40c19-14 35-31 35-36 0-12 236-248 248-248 5 0 22-16 36-35 15-19 33-35 40-35s22-11 33-24c26-30 126-106 140-106 5 0 25-13 43-30 18-16 38-30 44-30s21-11 33-24 55-40 95-61 94-49 120-62c27-14 50-29 54-34 3-5 13-9 23-9s24-7 31-15 19-15 27-15 26-9 40-20 34-20 44-20 38-11 61-24c24-13 58-26 76-29 19-4 48-13 65-21 42-18 70-29 82-31 6 0 24-7 40-14 17-7 39-14 50-15s34-8 50-15c17-7 44-13 60-14 17-2 35-5 40-9 9-5 51-15 98-24 166-28 269-44 302-44 434-8 677 1 775 27 14 3 36 8 50 9 26 3 62 8 120 19 19 4 40 11 47 17 7 5 17 7 23 3s17-2 24 4c8 7 31 14 51 16 51 7 174 45 181 56 3 5 15 9 27 9s42 10 67 22 53 22 62 23 54 20 100 42 103 49 127 59 61 31 82 46c22 16 44 28 49 28 15 0 63 32 73 47 4 7 16 13 26 13s26 9 36 20 22 20 27 20c15 0 157 101 186 132 15 15 32 28 39 28 6 0 31 20 55 45 24 24 48 45 53 45 10 0 23 12 158 147 133 133 247 263 247 281 0 7 7 15 15 18 8 4 15 13 15 20 0 8 6 17 14 20 15 6 86 107 86 123 0 6 7 14 15 18 14 8 51 69 80 133 9 19 25 42 35 52 11 11 20 26 21 36 0 9 9 31 20 47 10 17 22 37 25 45s30 65 60 125c30 61 54 117 54 125 0 9 9 33 20 55s20 49 20 60c0 12 4 25 9 30 12 14 51 136 46 145-3 4 2 21 11 38 8 17 16 46 18 64s6 40 9 48c4 8 9 29 11 45 3 17 10 50 16 74s8 51 5 59-1 20 4 26c8 11 28 165 31 254 8 187 0 493-15 577-3 17-8 53-10 80-3 28-8 64-12 80-4 17-8 35-8 40-4 41-19 102-27 112-5 7-7 17-3 23s2 16-3 23-12 32-16 57-13 58-21 74-15 37-15 47c0 11-4 27-9 37-24 44-42 94-37 99 3 3-3 22-14 42-25 46-43 91-45 114-1 9-10 26-19 36-9 9-16 23-16 29 0 7-4 20-9 30-4 9-18 37-30 62-43 92-114 217-151 265-21 28-41 59-44 71-4 12-25 41-47 65s-47 58-55 75c-9 18-35 52-60 76-24 23-44 48-44 54 0 5-13 20-30 32-16 13-30 28-30 35 0 16-221 237-237 237-7 0-22 14-35 30-12 17-27 30-32 30-6 0-31 20-54 44-24 25-58 51-76 60-17 8-51 33-75 55s-53 43-65 47c-12 3-43 23-71 44-48 37-173 108-265 151-25 12-53 26-62 30-10 5-23 9-30 9-6 0-20 7-29 16-10 9-27 18-36 19-23 2-68 20-114 45-20 11-39 17-42 14-5-5-55 13-99 37-10 5-26 9-37 9-10 0-31 7-47 15s-49 17-74 21-50 11-57 16-17 7-23 3-16-2-23 3c-10 8-71 23-112 27-5 0-23 4-40 8-16 4-52 9-80 12-27 2-63 7-80 10-96 18-510 29-544 14zM4808 6460c3-523 1-603-13-660-9-36-19-72-22-80-4-8-5-18-5-23 1-4-5-24-14-45-10-20-18-41-19-47 0-5-6-23-13-38-7-16-12-37-12-47s-4-22-10-25c-5-3-10-17-10-30s-4-26-9-29c-4-3-14-27-21-53-6-27-14-55-18-63-3-8-4-19-3-23 1-5-6-25-15-45-30-68-33-77-50-137-9-33-23-74-30-90-7-17-18-53-24-80-6-26-14-53-18-59-3-6-7-15-7-21-1-10-7-27-22-62-5-10-10 491-13 1112-3 622-4 1133-2 1138 2 4 81 6 175 5l172-3 3-595zm834 560c-2-19-8-39-12-45-5-5-11-28-15-50s-10-44-13-50c-3-5-7-20-8-34-2-13-8-29-13-34-6-6-11-21-11-33 0-13-4-26-10-29-5-3-10-16-10-28s-7-35-15-51c-8-15-15-38-15-50s-5-27-10-32c-6-6-12-22-14-35-1-13-10-40-18-58-9-19-14-40-11-47 2-7 0-15-6-19-6-3-11-16-11-29 0-12-5-27-10-32-6-6-12-22-14-35-2-23-8-40-26-84-12-29-33-97-35-115-1-8-7-28-13-43-7-16-12-37-12-47s-4-21-9-24c-7-5-34-85-36-111-1-5-8-26-17-45s-21-61-28-92c-6-32-16-60-21-64-5-3-7-9-4-14s-1-20-9-32c-8-13-20-45-26-73-7-27-14-57-17-65s-7-25-9-38c-1-13-8-30-15-38-6-8-13-22-14-32-1-9-7-30-14-47-7-16-17-50-23-75s-17-60-25-78-17-49-20-68-9-37-14-40c-4-2-6-11-3-18 3-8 1-17-5-21-6-3-11-16-11-29 0-12-5-27-10-32-6-6-12-22-14-35-2-23-8-40-26-84-13-31-43-127-45-144-1-16-8-34-25-76-13-30-33-97-34-115-1-8-7-25-14-37s-14-36-16-53-5-33-7-35c-6-5-308-9-313-4-6 6 12 87 26 116 6 12 12 30 13 40 1 17 7 35 25 78 12 29 33 97 35 115 1 8 7 29 14 45 7 17 14 37 15 45s8 28 14 43c7 16 12 37 12 47s5 22 10 25c6 4 8 10 5 15s1 20 9 32c8 13 20 46 26 73 7 28 14 57 17 65 4 8 7 20 8 25 1 6 9 28 19 49 10 22 20 56 24 75 3 19 11 46 18 60 7 13 11 28 8 33-3 4 2 18 11 32 9 13 17 35 19 48 1 12 8 36 14 51 7 16 12 34 12 41s6 26 14 42 20 52 27 79c7 28 18 64 25 80 7 17 18 53 25 80 6 28 15 58 20 67 5 10 9 26 9 36s5 23 10 28c6 6 12 22 14 35 1 13 11 42 21 64 9 22 17 50 17 63 0 12 4 25 9 28s9 13 9 23 7 32 15 47c8 16 15 38 15 50 0 11 4 24 9 30 7 8 34 95 36 119 1 6 8 26 17 44 9 19 14 40 11 47-2 7 0 15 6 19 6 3 11 16 11 29 0 12 5 27 10 32 6 6 12 22 14 35 3 26 12 54 27 81 5 10 9 29 9 42 0 14 5 28 10 31 6 3 10 14 10 24s7 32 15 47c8 16 15 39 15 51s5 25 10 28c6 3 10 17 10 30s5 36 12 50l11 26 151-3 151-3-3-35zm828-1267c0-720-4-1314-9-1321-6-10-49-14-182-14-173 0-174 0-186 24-37 75-54 120-49 125 3 3 2 11-3 17s-16 40-25 76-21 69-26 74c-6 6-10 20-10 33s-4 31-9 41c-5 9-17 44-26 77-10 33-22 71-28 85s-12 35-13 47c-2 12-9 32-16 45s-13 30-14 38c-3 30-46 166-60 188-8 12-12 27-9 32s1 11-4 14c-4 3-11 24-15 47-4 22-14 57-23 77-9 21-18 48-19 61-2 13-8 29-14 35-5 5-10 20-10 32 0 13-5 26-11 29-6 4-8 13-5 20 2 7-2 22-10 34-8 11-17 34-19 51-5 38-44 161-57 176-5 7-8 16-7 20 1 5-3 22-9 37-7 16-12 34-12 41s-9 39-21 72c-24 69-27 147-6 188 9 16 13 34 11 41-3 7-1 16 5 20 6 3 11 12 11 20s5 26 12 42c6 15 12 33 13 38 0 6 5 19 9 30 15 37 19 50 21 60 2 13 14 45 24 65 16 30 34 14 48-40 8-30 18-59 23-64 6-6 10-20 10-32 0-13 4-25 9-28 4-3 11-25 15-48 4-24 18-67 32-96s22-57 19-62-1-11 5-15c5-3 10-16 10-28s7-35 16-52c8-16 20-52 26-80 5-27 16-60 24-72s14-33 14-46c0-12 9-40 20-61 10-22 17-42 15-47-3-4-1-10 5-14 5-3 10-16 10-28 0-13 7-33 16-45 9-13 14-26 11-28-6-7 32-125 44-139 5-5 9-19 9-32s4-31 9-41c19-35 41-91 40-99-3-19 2-33 11-33 7 0 10 291 10 853 0 470 3 857 7 860 3 4 82 7 175 7h168V5753zm1241 1167c-1-76-7-140-13-147-7-9-46-13-129-13h-119V4720h260v-144c0-82-4-147-10-151-5-3-197-6-426-6-329 0-419 3-426 13-4 7-8 75-8 151v137h260v2040l-112 1c-62 0-121 4-131 8-17 6-19 20-19 138 0 73 3 137 7 142 4 8 139 10 437 9l431-3-2-135z"/></svg>